<svg xmlns="http://www.w3.org/2000/svg" viewBox="0 0 800 500" width="800" height="500">
  <!-- Fondo -->
  <rect width="800" height="500" fill="#f0fdf4"/>
  
  <!-- Silueta de casa -->
  <path d="M150 350 L 150 200 L 250 120 L 350 200 L 350 350 Z" fill="#ffffff" stroke="#16a34a" stroke-width="4"/>
  <rect x="230" y="280" width="40" height="70" fill="#16a34a"/>
  <rect x="180" y="230" width="30" height="30" fill="#dcfce7" stroke="#16a34a" stroke-width="2"/>
  <rect x="290" y="230" width="30" height="30" fill="#dcfce7" stroke="#16a34a" stroke-width="2"/>
  
  <!-- Técnico de fumigación -->
  <circle cx="500" cy="280" r="40" fill="#e2e8f0"/>
  <path d="M500 320 L 500 400" stroke="#1e293b" stroke-width="10"/>
  <path d="M500 340 L 460 380" stroke="#1e293b" stroke-width="6"/>
  <path d="M500 340 L 540 380" stroke="#1e293b" stroke-width="6"/>
  <path d="M500 400 L 480 450" stroke="#1e293b" stroke-width="6"/>
  <path d="M500 400 L 520 450" stroke="#1e293b" stroke-width="6"/>
  
  <!-- Equipo de fumigación -->
  <rect x="540" y="300" width="60" height="100" rx="10" fill="#16a34a"/>
  <rect x="550" y="290" width="40" height="10" fill="#16a34a"/>
  <circle cx="570" cy="330" r="15" fill="#dcfce7"/>
  <path d="M600 320 C 650 300, 650 250, 600 230" stroke="#16a34a" stroke-width="8" fill="none"/>
  
  <!-- Spray de fumigación -->
  <path d="M600 230 C 620 220, 640 210, 650 200 C 660 190, 670 180, 680 160" stroke="#86efac" stroke-width="3" fill="none" stroke-dasharray="5,3"/>
  <path d="M600 230 C 630 220, 650 200, 660 180" stroke="#86efac" stroke-width="3" fill="none" stroke-dasharray="5,3"/>
  <path d="M600 230 C 610 210, 620 190, 625 170" stroke="#86efac" stroke-width="3" fill="none" stroke-dasharray="5,3"/>
  
  <!-- Insectos huyendo -->
  <circle cx="180" cy="400" r="5" fill="#1e293b"/>
  <path d="M180 400 C 170 390, 160 395, 155 390" stroke="#1e293b" stroke-width="2" fill="none"/>
  <path d="M180 400 C 190 390, 200 395, 205 390" stroke="#1e293b" stroke-width="2" fill="none"/>
  <path d="M180 400 C 175 410, 170 415, 165 420" stroke="#1e293b" stroke-width="2" fill="none"/>
  <path d="M180 400 C 185 410, 190 415, 195 420" stroke="#1e293b" stroke-width="2" fill="none"/>
  
  <circle cx="220" cy="420" r="5" fill="#1e293b"/>
  <path d="M220 420 C 210 410, 200 415, 195 410" stroke="#1e293b" stroke-width="2" fill="none"/>
  <path d="M220 420 C 230 410, 240 415, 245 410" stroke="#1e293b" stroke-width="2" fill="none"/>
  <path d="M220 420 C 215 430, 210 435, 205 440" stroke="#1e293b" stroke-width="2" fill="none"/>
  <path d="M220 420 C 225 430, 230 435, 235 440" stroke="#1e293b" stroke-width="2" fill="none"/>
  
  <circle cx="260" cy="410" r="5" fill="#1e293b"/>
  <path d="M260 410 C 250 400, 240 405, 235 400" stroke="#1e293b" stroke-width="2" fill="none"/>
  <path d="M260 410 C 270 400, 280 405, 285 400" stroke="#1e293b" stroke-width="2" fill="none"/>
  <path d="M260 410 C 255 420, 250 425, 245 430" stroke="#1e293b" stroke-width="2" fill="none"/>
  <path d="M260 410 C 265 420, 270 425, 275 430" stroke="#1e293b" stroke-width="2" fill="none"/>
  
  <!-- Título -->
  <text x="400" y="80" font-family="Arial, sans-serif" font-size="36" font-weight="bold" text-anchor="middle" fill="#16a34a">SERVICIO PROFESIONAL</text>
  <text x="400" y="130" font-family="Arial, sans-serif" font-size="36" font-weight="bold" text-anchor="middle" fill="#16a34a">DE FUMIGACIÓN</text>
</svg>
