<?xml version="1.0" standalone="no"?>
<!DOCTYPE svg PUBLIC "-//W3C//DTD SVG 20010904//EN"
 "http://www.w3.org/TR/2001/REC-SVG-20010904/DTD/svg10.dtd">
<svg version="1.0" xmlns="http://www.w3.org/2000/svg"
 width="1024.000000pt" height="1024.000000pt" viewBox="0 0 1024.000000 1024.000000"
 preserveAspectRatio="xMidYMid meet">

<g transform="translate(0.000000,1024.000000) scale(0.100000,-0.100000)"
fill="#000000" stroke="none">
<path d="M4940 9850 c-204 -20 -460 -97 -648 -196 -170 -89 -275 -165 -416
-302 -296 -287 -463 -620 -522 -1038 -12 -92 -15 -161 -11 -304 9 -286 51
-465 167 -705 277 -577 868 -957 1540 -990 645 -32 1263 281 1610 815 193 298
293 712 262 1083 -21 248 -74 441 -183 662 -191 391 -547 708 -974 869 -84 32
-243 73 -355 91 -117 19 -356 27 -470 15z m394 -171 c8 -8 -202 -29 -275 -28
-30 0 -74 4 -99 8 -43 7 -44 8 -17 16 70 19 373 23 391 4z m184 -29 c160 -41
359 -124 491 -204 416 -254 686 -667 756 -1159 16 -108 20 -260 5 -201 -12 54
-20 68 -30 58 -14 -14 -46 -201 -55 -314 -8 -106 -31 -180 -45 -145 -5 11 -18
74 -30 140 -24 135 -51 208 -75 203 -10 -2 -26 15 -43 47 -24 44 -31 50 -57
48 -17 -1 -46 -2 -65 -3 -19 -1 -57 3 -85 10 -27 7 -66 13 -85 15 -52 3 -86
20 -121 60 -33 38 -69 47 -69 18 0 -26 35 -79 65 -99 14 -9 25 -25 25 -35 0
-44 78 -53 108 -12 19 26 21 27 39 10 11 -9 34 -20 52 -23 l33 -7 -4 -58 c-8
-106 -101 -208 -269 -296 -92 -49 -109 -52 -109 -22 0 30 -67 147 -110 194
-21 22 -66 91 -100 153 -57 103 -66 115 -111 138 l-50 25 7 -28 c9 -37 24 -67
68 -132 20 -29 36 -59 36 -66 0 -7 21 -55 46 -106 47 -93 105 -162 161 -190
17 -9 29 -23 31 -39 1 -13 8 -28 15 -32 18 -13 116 1 166 23 55 24 55 24 48
-10 -20 -97 -138 -259 -284 -388 -97 -85 -109 -113 -93 -214 11 -71 11 -81 -5
-106 -26 -39 -72 -79 -115 -98 -41 -18 -60 -49 -60 -95 0 -20 -8 -35 -26 -47
-15 -10 -46 -37 -69 -60 -68 -67 -122 -87 -239 -87 l-98 -1 -34 38 c-18 22
-39 59 -48 83 -8 24 -31 64 -50 90 -42 54 -45 87 -16 144 40 78 17 167 -65
259 l-54 60 2 73 c1 96 -11 118 -65 118 -32 0 -48 7 -79 35 -45 41 -71 43
-151 16 -97 -33 -188 -43 -239 -26 -65 23 -134 78 -165 132 -15 26 -45 67 -66
91 -28 30 -37 48 -33 62 3 11 7 77 7 147 1 161 15 193 132 308 45 44 86 91 93
105 6 14 34 51 62 83 28 32 51 67 51 77 0 10 -13 27 -29 36 -34 20 -45 52 -31
89 5 14 10 44 10 65 0 22 8 47 19 61 18 23 21 23 62 11 86 -26 94 -26 107 3
26 57 9 103 -45 119 -27 9 -29 23 -7 54 11 16 25 22 55 22 44 0 74 12 102 41
10 11 26 19 37 19 10 0 29 14 41 31 12 17 37 38 55 45 19 8 34 19 34 24 0 6 6
10 14 10 8 0 17 6 19 13 3 7 6 4 6 -6 1 -10 5 -16 10 -13 5 4 4 19 -2 37 -11
28 -10 33 13 51 l25 20 6 -31 c10 -50 36 -81 67 -81 27 0 127 31 164 51 10 5
18 20 18 33 0 17 7 26 24 30 18 4 23 11 19 25 -6 23 23 35 61 25 29 -7 32 2
12 29 -16 21 -44 22 -66 2 -18 -17 -60 -9 -60 11 0 7 9 28 20 46 43 71 6 79
-66 14 -46 -41 -49 -46 -48 -92 0 -27 4 -59 8 -71 6 -17 4 -24 -10 -30 -10 -4
-19 -2 -22 5 -2 7 -10 12 -18 12 -9 0 -13 -4 -9 -9 7 -12 -31 -25 -45 -16 -6
4 -17 22 -25 41 -15 37 -38 44 -65 19 -9 -8 -27 -16 -41 -17 -22 -3 -24 1 -27
48 -4 68 9 96 54 119 22 11 69 48 106 83 87 82 159 115 236 110 64 -5 246 -53
274 -72 16 -12 17 -15 4 -25 -9 -8 -27 -10 -45 -6 -24 5 -32 2 -41 -15 -19
-35 -6 -50 45 -50 38 0 52 5 73 28 15 15 32 36 38 47 9 17 14 18 43 5 28 -11
34 -11 47 2 24 24 -3 72 -84 152 -52 51 -84 73 -123 87 -71 24 -47 24 49 -1z
m-913 -46 c-16 -14 -51 -43 -77 -65 -31 -26 -48 -48 -50 -66 -2 -22 -9 -29
-30 -31 -16 -2 -28 -7 -28 -11 0 -17 -47 -60 -82 -75 -26 -10 -38 -21 -38 -35
0 -32 -11 -51 -30 -51 -24 0 -41 -23 -38 -51 3 -20 -2 -25 -24 -27 -16 -2 -28
-7 -28 -11 0 -4 -23 -46 -51 -92 -201 -331 -287 -665 -276 -1069 9 -326 66
-553 214 -855 24 -49 37 -81 28 -70 -9 11 -20 19 -25 18 -12 -3 -84 112 -150
242 -97 191 -164 418 -196 661 -33 252 -1 611 72 809 5 14 4 17 -4 10 -18 -17
-100 -216 -125 -305 -53 -184 -61 -242 -61 -475 -1 -247 9 -317 71 -510 84
-262 182 -416 408 -641 156 -155 165 -162 268 -213 103 -51 146 -79 70 -45
-21 9 -55 23 -77 31 -170 62 -427 269 -555 450 -260 365 -350 833 -251 1311
67 321 231 609 484 848 134 127 310 234 518 314 91 35 100 36 63 4z m566 -347
c-10 -9 -11 -8 -5 6 3 10 9 15 12 12 3 -3 0 -11 -7 -18z m-501 -97 c0 -6 -7
-22 -16 -36 -16 -24 -16 -26 24 -73 l41 -48 -18 -34 c-10 -18 -34 -42 -55 -52
-34 -18 -38 -18 -70 -3 -19 9 -39 16 -45 16 -6 0 9 20 35 45 25 25 49 45 55
45 5 0 9 5 9 10 0 6 -6 10 -14 10 -21 0 -31 21 -15 31 7 4 11 9 9 11 -3 2 -13
8 -23 13 -28 15 -23 27 24 52 49 26 59 28 59 13z m-135 -112 c15 -22 14 -24
-17 -50 -54 -46 -72 -31 -47 41 13 37 41 41 64 9z m285 -3 c-12 -15 -30 -12
-30 5 0 8 31 19 39 13 2 -1 -2 -9 -9 -18z m-330 -115 c-8 -5 -24 -10 -35 -10
-17 0 -17 2 -5 10 8 5 24 10 35 10 17 0 17 -2 5 -10z m1540 -1997 c0 -57 -116
-215 -182 -249 -17 -9 -31 -14 -33 -12 -1 2 12 41 30 88 27 70 40 89 69 107
19 13 42 36 51 52 24 47 65 56 65 14z m-1343 -379 c-5 -5 -57 13 -57 20 0 3
14 0 31 -6 16 -6 28 -12 26 -14z"/>
<path d="M4581 8842 c-1 -7 -11 -16 -23 -21 -21 -8 -21 -8 6 -15 35 -9 42 -2
28 26 -6 13 -11 17 -11 10z"/>
<path d="M5438 8779 c-30 -11 -34 -20 -43 -99 -9 -83 -1 -89 115 -79 56 4 123
3 162 -2 67 -10 108 -2 108 21 0 14 -34 46 -81 76 -23 14 -46 39 -52 55 -9 22
-18 29 -38 29 -34 0 -60 -27 -39 -40 8 -5 11 -12 7 -17 -5 -4 -23 9 -41 30
-33 38 -51 43 -98 26z"/>
<path d="M4960 8743 c0 -12 54 -87 75 -105 11 -10 25 -17 32 -18 19 0 54 -52
51 -74 -5 -38 -46 -32 -87 13 -21 23 -45 41 -54 41 -9 0 -31 19 -48 43 -36 50
-53 61 -76 49 -10 -5 -39 -12 -65 -16 -43 -6 -51 -13 -104 -79 -32 -40 -76
-91 -98 -115 -36 -37 -44 -41 -73 -36 -37 7 -43 -5 -16 -31 18 -19 8 -20 233
19 129 22 147 23 168 10 25 -16 28 -40 10 -80 -15 -33 2 -48 63 -58 25 -4 66
-24 105 -52 35 -25 72 -44 81 -42 10 2 27 21 39 42 33 58 44 61 128 32 83 -30
128 -32 170 -11 18 10 41 13 58 10 41 -9 78 34 78 89 0 49 -13 66 -52 66 -28
0 -37 -13 -18 -25 6 -3 10 -11 10 -18 0 -8 -3 -8 -12 1 -7 7 -26 12 -43 12
-53 0 -112 36 -137 83 -13 23 -25 56 -28 72 -7 39 -32 39 -40 0 -4 -17 -15
-43 -24 -58 -17 -25 -17 -29 -2 -52 9 -13 31 -32 49 -41 17 -10 27 -19 20 -21
-13 -5 -97 36 -132 65 -18 14 -25 30 -27 61 -2 51 -27 91 -57 91 -15 0 -18 3
-9 8 16 11 -26 51 -102 97 -62 37 -66 39 -66 28z m-72 -161 c20 -13 3 -42 -24
-42 -17 0 -24 6 -24 18 0 31 21 41 48 24z m140 -112 c7 -12 10 -25 7 -30 -9
-15 -43 -12 -52 4 -4 7 -15 16 -23 19 -12 4 -11 6 3 6 9 1 17 6 17 11 0 18 35
10 48 -10z"/>
<path d="M5355 6548 c-63 -16 -85 -27 -40 -21 22 3 54 12 70 19 35 15 26 15
-30 2z"/>
<path d="M5835 6700 c-3 -6 1 -7 9 -4 18 7 21 14 7 14 -6 0 -13 -4 -16 -10z"/>
<path d="M7645 8193 c-23 -123 -79 -198 -172 -232 -32 -12 -65 -24 -73 -27 -9
-3 9 -13 43 -24 118 -37 158 -81 196 -217 10 -37 21 -61 24 -53 3 8 15 46 26
83 32 112 82 159 197 188 53 14 52 15 -49 45 -75 22 -119 69 -146 159 -12 37
-21 75 -21 85 0 35 -18 30 -25 -7z"/>
<path d="M2190 8107 c0 -31 -27 -132 -46 -168 -29 -59 -71 -91 -146 -115 -32
-10 -58 -20 -58 -23 0 -3 27 -14 60 -24 100 -29 154 -91 181 -209 8 -32 16
-58 19 -58 3 0 16 37 30 82 32 109 78 159 168 184 34 9 62 20 62 24 0 4 -28
15 -62 26 -34 10 -78 32 -97 49 -41 36 -78 112 -87 178 -4 26 -11 50 -15 53
-5 3 -9 3 -9 1z"/>
<path d="M3194 7589 c-486 -363 -875 -919 -1038 -1484 -239 -834 -128 -1688
317 -2433 400 -668 1130 -1206 1902 -1402 529 -134 1051 -135 1530 -4 547 150
1033 439 1441 855 288 296 503 621 652 989 373 923 266 2006 -278 2785 -157
225 -391 478 -590 636 -127 101 -149 115 -154 98 -2 -8 -21 -66 -41 -130 l-37
-117 43 -38 c228 -203 342 -324 473 -499 274 -365 447 -776 511 -1217 22 -147
30 -467 16 -613 -37 -377 -121 -674 -287 -1005 -131 -260 -278 -468 -484 -683
-209 -219 -420 -378 -711 -538 -280 -153 -608 -266 -922 -316 -160 -26 -612
-25 -777 0 -304 48 -557 125 -835 255 -675 315 -1207 887 -1456 1565 -276 754
-212 1583 175 2263 156 273 402 564 638 756 68 55 85 75 79 87 -5 9 -25 67
-46 129 -20 61 -40 112 -44 112 -5 0 -39 -23 -77 -51z"/>
<path d="M8490 7429 c-48 -188 -96 -245 -234 -280 -25 -6 -46 -15 -46 -19 0
-5 24 -16 53 -26 132 -43 171 -87 213 -239 24 -91 27 -89 59 38 29 114 84 171
195 203 30 9 59 19 64 22 5 2 -24 15 -63 27 -124 40 -161 82 -202 232 -12 43
-23 80 -24 82 -2 1 -9 -17 -15 -40z"/>
<path d="M1556 7287 c-9 -40 -25 -87 -36 -104 -24 -40 -74 -77 -125 -93 -82
-26 -83 -30 -11 -54 104 -35 141 -81 173 -213 9 -37 19 -72 23 -76 5 -5 13 13
19 40 32 151 84 219 190 249 34 9 61 20 61 25 0 4 -28 17 -62 28 -35 12 -77
30 -95 41 -39 23 -79 99 -95 176 -6 29 -14 54 -18 54 -3 0 -14 -33 -24 -73z"/>
<path d="M3223 7104 c-251 -252 -403 -456 -537 -724 -155 -311 -234 -614 -256
-982 -21 -346 28 -709 140 -1033 41 -119 166 -388 212 -455 13 -19 48 -73 77
-120 360 -570 1014 -1015 1719 -1169 206 -45 350 -61 558 -61 210 0 327 11
499 45 646 130 1211 476 1627 998 115 144 200 278 289 457 191 383 279 756
279 1180 0 664 -224 1233 -685 1743 -88 98 -278 277 -293 277 -4 0 -18 -21
-32 -47 -14 -27 -55 -93 -91 -148 -247 -371 -649 -659 -1081 -775 -310 -84
-659 -92 -947 -23 -377 90 -716 282 -971 549 -88 93 -162 189 -255 334 -37 58
-71 109 -75 114 -5 4 -84 -68 -177 -160z m3207 -858 c140 -33 291 -100 410
-184 75 -52 140 -111 140 -127 0 -17 -275 -285 -292 -285 -9 0 -22 7 -29 16
-26 31 -125 102 -186 133 -89 44 -163 61 -273 61 -181 0 -301 -49 -426 -174
-44 -45 -93 -102 -108 -129 -130 -223 -116 -598 30 -819 105 -157 275 -252
469 -262 182 -9 324 45 473 179 l54 48 134 -134 c74 -74 137 -143 141 -154 8
-27 -108 -134 -214 -197 -167 -99 -333 -142 -553 -142 -218 -1 -372 35 -536
123 -349 188 -544 531 -544 955 0 586 348 1006 910 1101 104 18 307 13 400 -9z
m-1674 -5 l29 -7 3 -185 c3 -178 2 -185 -19 -201 -19 -17 -57 -18 -470 -18
l-449 0 0 -225 c0 -124 1 -226 3 -227 1 -1 184 -5 407 -8 l405 -5 3 -179 c2
-123 -1 -183 -9 -192 -9 -12 -83 -14 -410 -14 l-398 0 -3 -217 c-2 -120 -2
-221 0 -225 2 -5 211 -8 466 -8 346 0 465 -3 474 -12 17 -17 17 -368 0 -391
-12 -16 -63 -17 -698 -15 l-685 3 -3 1054 c-1 755 1 1058 9 1067 8 9 45 14
122 17 201 5 1194 -4 1223 -12z"/>
<path d="M1261 4220 c-347 -117 -573 -198 -586 -210 -37 -35 -50 -89 -35 -151
52 -215 270 -709 450 -1019 516 -887 1318 -1590 2265 -1985 793 -331 1678
-432 2544 -290 1326 218 2549 1062 3246 2240 164 279 344 671 439 958 48 146
46 198 -12 250 -21 19 -1141 397 -1177 397 -12 0 -37 -10 -56 -23 -29 -19 -42
-44 -91 -167 -32 -80 -95 -221 -141 -315 -492 -1001 -1422 -1689 -2512 -1856
-170 -27 -558 -37 -746 -20 -727 67 -1466 403 -1988 906 -386 371 -651 770
-847 1273 -24 62 -51 126 -59 142 -18 34 -62 60 -102 60 -15 -1 -282 -86 -592
-190z m516 -132 c5 -7 25 -51 43 -98 67 -172 212 -443 333 -625 230 -347 502
-633 842 -886 251 -188 535 -352 785 -455 306 -125 624 -208 980 -256 128 -17
603 -17 740 0 638 79 1171 285 1681 650 396 284 774 693 1025 1112 75 125 217
408 255 508 13 34 29 62 35 62 20 0 834 -279 834 -285 0 -2 -22 -65 -50 -140
-237 -648 -683 -1308 -1186 -1756 -315 -280 -688 -536 -1034 -709 -384 -193
-823 -329 -1267 -395 -299 -44 -732 -59 -1013 -35 -678 58 -1303 249 -1844
564 -770 448 -1390 1113 -1772 1901 -99 203 -224 507 -227 551 -2 26 2 28 333
139 184 62 367 125 405 138 82 30 90 31 102 15z"/>
<path d="M1486 3550 c-137 -83 -258 -156 -269 -163 -19 -12 -19 -13 1 -47 41
-74 196 -345 198 -348 4 -6 114 62 114 70 0 4 -32 60 -71 125 -39 65 -73 121
-75 125 -4 7 61 53 91 64 8 4 37 -35 80 -108 37 -62 69 -115 71 -117 2 -2 29
13 59 33 64 42 67 27 -27 173 -33 51 -57 97 -53 103 3 6 29 22 56 35 l49 25
44 -68 c24 -38 51 -83 60 -100 9 -17 21 -34 26 -37 11 -7 94 37 105 55 4 6
-11 37 -32 69 -21 32 -65 104 -98 159 -33 56 -64 101 -70 101 -5 0 -122 -67
-259 -149z"/>
<path d="M8956 3532 c-40 -80 -84 -163 -90 -169 -1 -2 -105 49 -231 112 -126
63 -231 115 -232 115 -2 0 -19 -32 -38 -70 l-36 -70 48 -21 c26 -11 153 -75
282 -142 130 -67 239 -123 242 -125 4 -2 30 43 59 100 29 57 75 144 101 194
27 50 49 95 49 100 0 8 -37 30 -102 62 -4 2 -27 -37 -52 -86z"/>
<path d="M8259 3271 c-70 -23 -158 -101 -197 -176 -21 -41 -26 -64 -26 -130
-1 -67 3 -89 26 -135 35 -71 107 -143 177 -178 48 -23 69 -27 141 -27 71 0 94
4 140 26 73 35 126 90 163 168 58 123 32 248 -72 350 -75 73 -147 105 -246
108 -44 1 -92 -1 -106 -6z m177 -161 c62 -35 96 -74 119 -134 23 -60 14 -106
-31 -156 -73 -81 -169 -76 -269 12 -104 91 -99 223 10 285 56 32 108 29 171
-7z"/>
<path d="M1975 3234 c-16 -13 -125 -99 -242 -191 l-212 -165 40 -59 39 -58 76
62 c42 34 115 94 162 134 48 40 88 70 91 68 4 -5 -109 -204 -175 -307 l-43
-67 41 -56 c33 -46 43 -55 61 -49 12 3 103 40 202 82 99 43 184 79 190 80 5 2
-64 -68 -155 -156 l-165 -160 45 -46 c24 -25 48 -46 53 -46 5 0 78 67 161 149
83 82 185 180 225 218 l75 70 -69 76 -68 76 -66 -33 c-36 -18 -115 -54 -176
-80 -60 -26 -118 -51 -127 -56 -26 -15 -43 -13 -30 3 12 14 159 273 191 334
11 23 21 48 21 55 0 15 -98 148 -108 148 -4 -1 -20 -12 -37 -26z"/>
<path d="M7833 2763 c-23 -5 -263 -219 -263 -236 0 -5 6 -15 14 -21 7 -6 61
-65 118 -131 156 -178 269 -300 278 -300 4 0 31 22 60 49 l52 49 -81 81 c-45
45 -81 85 -81 90 0 15 34 35 57 36 12 0 75 -14 138 -32 l116 -31 54 53 c30 30
52 57 47 61 -6 6 -187 58 -255 73 -24 6 -26 9 -16 28 18 33 5 105 -28 152 -50
70 -119 97 -210 79z m96 -169 c32 -41 26 -65 -30 -119 l-51 -50 -49 54 -49 55
23 24 c59 65 122 79 156 36z"/>
<path d="M2419 2552 c-58 -64 -154 -172 -213 -239 l-108 -123 54 -50 53 -50
48 53 c26 28 57 67 70 84 12 18 26 33 30 33 4 0 31 -18 60 -40 92 -69 160 -86
230 -56 67 28 136 125 137 190 0 55 -39 112 -146 215 -58 56 -106 101 -107
100 -1 0 -50 -53 -108 -117z m207 -144 c20 -39 18 -56 -15 -89 -41 -40 -88
-40 -136 2 -19 17 -35 35 -35 41 0 5 23 36 51 68 l51 59 35 -27 c19 -15 41
-39 49 -54z"/>
<path d="M7318 2342 c-91 -70 -174 -132 -184 -138 -17 -10 -16 -14 16 -55 18
-24 37 -48 41 -53 4 -4 35 13 69 39 34 26 62 46 64 44 2 -2 71 -93 155 -201
l152 -197 55 42 c29 23 54 47 54 52 0 6 -70 96 -154 202 l-155 192 67 47 c37
26 68 48 70 50 5 3 -71 103 -78 103 -3 0 -80 -58 -172 -127z"/>
<path d="M2804 2158 c-64 -95 -144 -211 -177 -257 -68 -94 -68 -94 4 -147 l47
-34 68 105 c38 58 71 105 74 105 3 0 18 -10 33 -23 l29 -23 -9 -137 c-4 -75
-7 -141 -5 -147 3 -9 106 -80 116 -80 2 0 9 69 16 154 l13 154 49 5 c64 8 103
32 138 86 37 55 46 101 31 152 -17 55 -58 98 -153 159 -46 29 -94 60 -108 70
-14 9 -30 19 -37 23 -7 5 -53 -54 -129 -165z m267 -67 c40 -51 6 -141 -53
-141 -27 0 -128 56 -128 70 0 9 16 37 67 118 l14 23 41 -23 c22 -13 49 -34 59
-47z"/>
<path d="M6998 2119 l-57 -39 43 -73 c24 -39 69 -114 101 -165 31 -51 55 -96
52 -98 -4 -5 -194 93 -364 187 l-41 24 -62 -30 c-34 -16 -64 -33 -66 -37 -2
-3 57 -133 132 -287 l137 -280 51 26 c28 14 56 29 62 34 12 9 -49 135 -152
319 -23 41 -41 76 -39 78 2 2 20 -7 42 -21 72 -46 383 -219 402 -224 20 -5
121 63 121 82 0 5 -33 69 -73 140 -40 72 -106 189 -146 260 -40 72 -76 133
-79 137 -4 3 -33 -11 -64 -33z"/>
<path d="M3283 1843 c-52 -109 -115 -240 -139 -291 l-44 -94 108 -50 c59 -28
140 -65 179 -84 l73 -33 27 55 c14 30 24 56 22 57 -2 2 -55 26 -117 52 -62 27
-111 51 -109 54 2 3 15 32 30 64 15 31 30 57 34 57 5 0 50 -18 102 -40 51 -23
95 -40 96 -38 6 7 45 101 43 103 -2 0 -41 18 -88 38 -120 53 -114 44 -80 115
l29 61 75 -34 c42 -19 89 -41 105 -50 l29 -15 26 52 c14 29 26 55 26 60 0 8
-306 158 -322 158 -5 0 -52 -89 -105 -197z"/>
<path d="M3705 1553 c-53 -164 -98 -302 -99 -307 0 -5 20 -16 46 -25 26 -9 50
-19 54 -23 4 -5 10 -8 14 -8 4 0 35 90 71 200 35 110 67 200 70 200 4 0 18
-46 33 -102 14 -57 43 -166 64 -242 l37 -139 45 -12 c25 -6 55 -15 67 -19 19
-6 23 -2 31 26 39 136 129 439 152 510 l27 86 -65 17 c-36 9 -68 12 -72 8 -4
-4 -28 -87 -54 -183 -58 -211 -58 -211 -64 -185 -2 11 -26 99 -52 195 -27 96
-53 194 -59 217 -11 41 -14 43 -77 63 -37 11 -67 20 -69 20 -1 0 -46 -134
-100 -297z"/>
<path d="M6197 1776 c-139 -58 -207 -158 -207 -305 0 -186 117 -323 295 -345
52 -6 159 18 211 49 54 32 101 86 132 153 21 47 24 64 20 140 -7 142 -72 248
-186 304 -71 35 -188 37 -265 4z m171 -121 c51 -22 81 -52 108 -110 56 -118 8
-254 -102 -284 -64 -18 -147 17 -187 79 -67 100 -63 216 9 281 52 48 111 59
172 34z"/>
<path d="M4405 1638 c-3 -18 -21 -132 -40 -253 -19 -121 -39 -247 -45 -279 -5
-33 -8 -61 -7 -63 7 -6 255 -43 293 -43 110 0 218 71 271 177 39 80 45 212 13
295 -26 70 -83 123 -155 143 -39 11 -293 55 -319 55 -3 0 -8 -15 -11 -32z
m247 -129 c136 -35 158 -230 38 -344 -27 -26 -39 -30 -104 -33 -121 -6 -117
-14 -85 193 15 97 30 182 32 190 6 14 50 12 119 -6z"/>
<path d="M5550 1650 c-66 -14 -145 -56 -181 -97 -70 -81 -95 -204 -65 -323 36
-141 117 -216 258 -240 115 -20 238 17 302 92 28 32 72 136 62 145 -2 2 -34
-1 -72 -7 -60 -10 -72 -16 -104 -49 -95 -104 -259 -54 -300 90 -27 93 3 205
64 236 79 41 156 34 208 -17 16 -16 34 -27 41 -25 7 2 38 11 69 20 55 15 57
16 48 40 -31 81 -113 134 -217 140 -38 2 -88 0 -113 -5z"/>
</g>
</svg>
